<svg id="Layer_1" data-name="Layer 1" xmlns="http://www.w3.org/2000/svg" viewBox="0 0 407.17 93.4"><defs><style>.cls-1{fill:#ed5733;}.cls-2{fill:#f15931;}.cls-3{fill:#9e53a0;}.cls-4{fill:#333;}</style></defs><title>Artboard 1 copy</title><path class="cls-1" d="M389.9,20.77H286.51a3.14,3.14,0,0,0-3.13,3.14V69.49a3.14,3.14,0,0,0,3.13,3.14h8.37c3.14,0,3.14-.07,3.14,3.13v3.93c0,3.79,3.89,2.62,8.89-1.69l6.25-4.54a3.12,3.12,0,0,1,2.13-.83H389.9A3.15,3.15,0,0,0,393,69.49V23.91A3.15,3.15,0,0,0,389.9,20.77ZM322.22,60.2A1.24,1.24,0,0,1,321,61.44H316.5l-13.7-18a.62.62,0,0,0-1.11.38V60.2a1.25,1.25,0,0,1-1.24,1.24h-4.16a1.24,1.24,0,0,1-1.24-1.24V32.09a1.24,1.24,0,0,1,1.24-1.24h4.35a1.23,1.23,0,0,1,1,.49l12.85,16.88a.62.62,0,0,0,1.11-.37V32.09a1.25,1.25,0,0,1,1.24-1.24H321a1.24,1.24,0,0,1,1.24,1.24Zm30.72,0a1.24,1.24,0,0,1-1.23,1.24h-19.5A1.24,1.24,0,0,1,331,60.2V32.09a1.24,1.24,0,0,1,1.24-1.24h4.25a1.25,1.25,0,0,1,1.24,1.24v22a1.24,1.24,0,0,0,1.23,1.24h12.78a1.23,1.23,0,0,1,1.23,1.24Zm31.64-19c0,7.08-5.5,9.51-12.36,9.51h-3.87A1.23,1.23,0,0,0,367.11,52v7.93a1.24,1.24,0,0,1-1.24,1.24h-4.25a1.23,1.23,0,0,1-1.24-1.24V31.83a1.23,1.23,0,0,1,1.24-1.24h11.25c7.3,0,11.71,3.7,11.71,10Z"/><path class="cls-1" d="M372.31,36.66h-4a1.24,1.24,0,0,0-1.24,1.24v5.64a1.23,1.23,0,0,0,1.24,1.23h4.09c3.36,0,5.33-.77,5.33-3.39v-.71C377.77,37.66,375.67,36.66,372.31,36.66Z"/><path class="cls-2" d="M146.45,27.5c-1.63-1.25-2.26,4.9-5.53,4.9-3.76,0-5-16.33-7.91-16.33-.88,0-1-.5-9.92,26.75-3.64,11.3,5.53,19.84,14.82,19.84,5.78,0,15.45-3.77,15.45-15.82C153.36,37.92,149,29.38,146.45,27.5Zm-8.66,29a8.8,8.8,0,1,1,8.41-8.79A8.59,8.59,0,0,1,137.79,56.51Z"/><path class="cls-3" d="M142.81,12.18c-.63,0-2.26,3.14-2.26,4.52a2.27,2.27,0,1,0,4.52,0C144.94,15.32,143.31,12.18,142.81,12.18Z"/><path class="cls-4" d="M17.49,61.78V30.89H31.93c6.66,0,10.42,4.52,10.42,9.92s-3.76,9.92-10.42,9.92H24V61.78Zm18.08-21c0-2.64-2-4.14-4.64-4.14H24V45h6.91C33.56,45,35.57,43.32,35.57,40.81Z"/><path class="cls-4" d="M61.69,61.78V49.1L49.89,30.89h7.53L65.08,43.2l7.66-12.31h7.41L68.35,49.1V61.78Z"/><path class="cls-4" d="M97,61.78V36.67h-9V30.89h24.62v5.78h-9V61.78Z"/><path class="cls-4" d="M182.49,61.78l-6-10.92h-4.77V61.78h-6.53V30.89h14.31c6.41,0,10.43,4.27,10.43,9.92A9,9,0,0,1,183.12,50l7,11.8Zm.63-21c0-2.51-2-4.14-4.65-4.14h-6.91V45h6.91C181.11,45,183.12,43.45,183.12,40.81Z"/><path class="cls-4" d="M200.32,46.34c0-9.55,7.16-16,16.45-16a14.19,14.19,0,0,1,12.93,7.53l-5.65,2.77a8.24,8.24,0,0,0-7.28-4.52c-5.65,0-9.67,4.26-9.67,10.17s4,10.17,9.67,10.17A8.57,8.57,0,0,0,224.05,52l5.65,2.76a14,14,0,0,1-12.93,7.53C207.48,62.28,200.32,55.75,200.32,46.34Z"/><path class="cls-4" d="M261.72,61.78V48.72H247.16V61.78h-6.53V30.89h6.53V43.07h14.56V30.89h6.66V61.78Z"/></svg>