<?xml version="1.0" encoding="utf-8"?>
<!-- Generator: Adobe Illustrator 22.1.0, SVG Export Plug-In . SVG Version: 6.00 Build 0)  -->
<svg version="1.1" id="Layer_1" xmlns="http://www.w3.org/2000/svg" xmlns:xlink="http://www.w3.org/1999/xlink" x="0px" y="0px"
	 viewBox="0 0 541.1 113.7" style="enable-background:new 0 0 541.1 113.7;" xml:space="preserve">
<style type="text/css">
	.st0{fill:#EF4E2A;}
	.st1{fill:#262525;}
</style>
<g>
	<path class="st0" d="M60.6,34.4l-4.8,4.8c8,8,8,21.1,0,29.1s-21.1,8-29.1,0s-8-21.1,0-29.1l0,0l12.8-12.8l1.6-1.8l0,0v-9.6
		L21.6,34.4c-10.8,10.8-10.8,28,0,38.8s28,10.8,38.8,0C71.4,62.4,71.4,45,60.6,34.4z"/>
	<circle class="st0" cx="51" cy="29.4" r="3.7"/>
</g>
<g>
	<g>
		<path class="st1" d="M110.7,59h-8.3v21.3h-6.2V19.7c0,0,14.5,0,15.1,0c16.1,0,23.6,7.8,23.6,19C135,52.1,125.6,58.7,110.7,59z
			 M111.1,25.5c-0.7,0-8.9,0-8.9,0v27.8l8.7-0.2c11.5-0.2,17.7-4.8,17.7-14.2C128.6,30.3,122.6,25.5,111.1,25.5z"/>
		<path class="st1" d="M163,80.1l-3.7,9.6c-4.1,10.8-8.3,14-14.5,14c-3.4,0-6-0.9-8.7-2.1l1.8-5.5c2.1,1.1,4.4,1.8,6.9,1.8
			c3.4,0,6-1.8,9.2-10.3l3-7.8L139.8,36h6.4l14,36.7L174,36h6.2L163,80.1z"/>
		<path class="st1" d="M200.8,25.7v54.8h-6.2V25.7h-21.3v-6h48.9v5.7h-21.3V25.7z"/>
		<path class="st1" d="M239.6,81.7c-12.4,0-21.6-9.2-21.6-23.4s9.4-23.6,22-23.6c12.4,0,21.3,9.2,21.3,23.4S252,81.7,239.6,81.7z
			 M239.8,40.1c-9.4,0-15.6,7.6-15.6,17.9c0,10.8,6.4,18.1,15.8,18.1c9.4,0,15.6-7.6,15.6-17.9C255.7,47.5,249.3,40.1,239.8,40.1z"
			/>
		<path class="st1" d="M276.8,80.5h-6V36l6-1.1v9.4c3-5.7,7.3-9.4,13.1-9.4c3,0,5.7,0.9,7.8,2.1l-1.6,5.7c-1.8-1.1-4.4-1.8-6.9-1.8
			c-4.6,0-8.9,3.4-12.6,11.5v28.2H276.8z"/>
		<path class="st1" d="M321.3,81.7c-13.3,0-21.8-9.6-21.8-23.4c0-14,9.2-23.6,21.8-23.6c5.5,0,10.1,1.4,14,3.9l-1.6,5.5
			c-3.4-2.3-7.6-3.7-12.4-3.7c-9.6,0-15.6,7.1-15.6,17.7c0,10.8,6.4,17.9,15.8,17.9c4.4,0,8.9-1.4,12.4-3.7l1.1,5.5
			C331.2,80.3,326.4,81.7,321.3,81.7z"/>
		<path class="st1" d="M372.5,80.5V51.9c0-7.8-3.2-11.2-9.4-11.2c-5,0-10.1,2.5-13.8,6.4v33.7h-6V15.1l6-1.1c0,0,0,27.8,0,28
			c4.6-4.6,10.6-7.1,15.4-7.1c8.7,0,14,5.5,14,15.1v30.5C378.7,80.5,372.5,80.5,372.5,80.5z"/>
	</g>
</g>
<path class="st0" d="M434.5,94.7l-5.9,5.9V85.6c-18-1-32.3-16-32.3-34.2c0-18.9,15.4-34.3,34.3-34.3c0.3,0,0.5,0,0.8,0l0.2,0l58.7,0
	l0.1,0c0.3,0,0.6,0,0.9,0c18.9,0,34.3,15.4,34.3,34.3s-15.4,34.3-34.3,34.3c-0.3,0-0.6,0-0.8,0l-0.2,0l-44,0l6-5.9l38.1,0l0.3,0
	c0.2,0,0.4,0,0.6,0c15.6,0,28.4-12.7,28.4-28.4S506.9,23,491.3,23c-0.2,0-0.4,0-0.7,0l-0.2,0l-59.2,0c-0.2,0-0.4,0-0.6,0
	c-15.6,0-28.4,12.7-28.4,28.4s12.7,28.4,28.4,28.4h3.9V94.7z"/>
<path class="st0" d="M450.6,65.4h-7.7l-12.4-21.6h-0.2c0.2,3.8,0.4,6.5,0.4,8.2v13.4h-5.4V36.8h7.6l12.4,21.4h0.1
	c-0.2-3.7-0.3-6.3-0.3-7.9V36.8h5.4v28.6H450.6z"/>
<path class="st0" d="M458.8,65.4V36.8h6.1v23.6h11.6v5C476.5,65.4,458.8,65.4,458.8,65.4z"/>
<path class="st0" d="M502.1,45.7c0,3.1-1,5.4-2.9,7.1c-1.9,1.6-4.7,2.4-8.2,2.4h-2.6v10.2h-6.1V36.8h9.1c3.5,0,6.1,0.7,7.9,2.2
	C501.2,40.5,502.1,42.8,502.1,45.7z M488.5,50.3h2c1.9,0,3.3-0.4,4.2-1.1c0.9-0.7,1.4-1.8,1.4-3.2s-0.4-2.5-1.2-3.1
	c-0.8-0.7-2-1-3.6-1h-2.8V50.3z"/>
</svg>
