<svg id="Layer_1" data-name="Layer 1" xmlns="http://www.w3.org/2000/svg" viewBox="0 0 291.25 245.16"><defs><style>.cls-1{fill:#ed5733;}.cls-2{fill:#f15931;}.cls-3{fill:#9e53a0;}.cls-4{fill:#333;}</style></defs><title>Artboard 1</title><path class="cls-1" d="M267.64,85.25H25.3A7.35,7.35,0,0,0,18,92.6V199.45a7.35,7.35,0,0,0,7.35,7.35H44.92c7.35,0,7.35-.17,7.35,7.35v9.21c0,8.87,9.12,6.13,20.84-4l14.65-10.63a7.33,7.33,0,0,1,5-1.95H267.64a7.35,7.35,0,0,0,7.35-7.35V92.6A7.35,7.35,0,0,0,267.64,85.25ZM109,177.66a2.9,2.9,0,0,1-2.9,2.9H95.59L63.48,138.41a1.46,1.46,0,0,0-2.61.88v38.37a2.9,2.9,0,0,1-2.9,2.9H48.21a2.9,2.9,0,0,1-2.9-2.9V111.78a2.9,2.9,0,0,1,2.9-2.9h10.2A2.9,2.9,0,0,1,60.72,110l30.11,39.57a1.45,1.45,0,0,0,2.61-.88V111.78a2.9,2.9,0,0,1,2.9-2.9h9.76a2.9,2.9,0,0,1,2.9,2.9Zm72,0a2.9,2.9,0,0,1-2.9,2.9H132.41a2.9,2.9,0,0,1-2.9-2.9V111.78a2.9,2.9,0,0,1,2.9-2.9h10a2.9,2.9,0,0,1,2.9,2.9v51.54a2.9,2.9,0,0,0,2.9,2.9h29.94a2.9,2.9,0,0,1,2.9,2.91Zm74.16-44.41c0,16.59-12.91,22.29-29,22.29h-9.08a2.9,2.9,0,0,0-2.91,2.9V177a2.9,2.9,0,0,1-2.9,2.9h-10a2.9,2.9,0,0,1-2.91-2.9V111.16a2.9,2.9,0,0,1,2.91-2.9h26.38c17.1,0,27.45,8.69,27.45,23.33Z"/><path class="cls-1" d="M226.4,122.49h-9.28a2.9,2.9,0,0,0-2.91,2.9v13.22a2.9,2.9,0,0,0,2.91,2.9h9.59c7.88,0,12.49-1.81,12.49-8V131.9C239.2,124.83,234.29,122.49,226.4,122.49Z"/><path class="cls-2" d="M149.46,30.62c-1.63-1.26-2.26,4.89-5.52,4.89-3.77,0-5-16.32-7.91-16.32-.88,0-1-.5-9.92,26.75-3.64,11.3,5.52,19.84,14.81,19.84,5.78,0,15.45-3.77,15.45-15.83C156.37,41,152,32.5,149.46,30.62Zm-8.66,29a8.8,8.8,0,1,1,8.41-8.79A8.57,8.57,0,0,1,140.8,59.62Z"/><path class="cls-3" d="M145.82,15.3c-.63,0-2.26,3.14-2.26,4.52a2.27,2.27,0,1,0,4.52,0C148,18.44,146.32,15.3,145.82,15.3Z"/><path class="cls-4" d="M20.5,64.9V34H34.94c6.66,0,10.43,4.52,10.43,9.92s-3.77,9.92-10.43,9.92H27V64.9Zm18.08-21c0-2.64-2-4.15-4.64-4.15H27v8.29h6.91C36.58,48.07,38.58,46.44,38.58,43.93Z"/><path class="cls-4" d="M64.7,64.9V52.21L52.9,34h7.53l7.66,12.3L75.75,34h7.41l-11.8,18.2V64.9Z"/><path class="cls-4" d="M100,64.9V39.78H91V34h24.61v5.77h-9V64.9Z"/><path class="cls-4" d="M185.5,64.9l-6-10.93H174.7V64.9h-6.53V34h14.32c6.4,0,10.42,4.27,10.42,9.92a9,9,0,0,1-6.78,9.16l7,11.81Zm.63-21c0-2.51-2-4.15-4.65-4.15h-6.9v8.29h6.9C184.12,48.07,186.13,46.56,186.13,43.93Z"/><path class="cls-4" d="M203.33,49.45c0-9.54,7.16-16,16.45-16A14.21,14.21,0,0,1,232.72,41l-5.66,2.76a8.25,8.25,0,0,0-7.28-4.52c-5.65,0-9.67,4.27-9.67,10.17s4,10.17,9.67,10.17a8.57,8.57,0,0,0,7.28-4.52l5.66,2.77a14.07,14.07,0,0,1-12.94,7.53C210.49,65.4,203.33,58.87,203.33,49.45Z"/><path class="cls-4" d="M264.74,64.9V51.84H250.17V64.9h-6.53V34h6.53V46.19h14.57V34h6.65V64.9Z"/></svg>