<svg xmlns="http://www.w3.org/2000/svg" viewBox="0 0 978 168"><defs><style>.a{fill:#fefefe;}.b{fill:#eb4e36;}.c{fill:#262626;}.d{fill:#eb5039;}.e{fill:#eb533c;}.f{fill:#fcfcfb;}.g{fill:#fdfcfc;}.h{fill:#fdfdfd;}.i{fill:#eb4e37;}</style></defs><title>pytorch-nlp-logo</title><path class="a" d="M236.25,178.25h-226q0-84,0-168,487.87,0,975.75,0a10.86,10.86,0,0,1,2.25.48H693.92v141.6h49.68v25.27c.83-.5,1.47-.86,2.08-1.26,11.66-7.58,23.3-15.2,35-22.7a9,9,0,0,1,4.58-1.36q101.48-.1,203-.06v26h-745c.16-.16.3-.44.48-.46a16,16,0,0,0,11.4-6.39,74.72,74.72,0,0,0,8-14c3-6.76,5.24-13.83,7.9-20.74,4.19-10.88,8.47-21.73,12.69-32.6q6.81-17.54,13.59-35.1c1.35-3.49,2.71-7,4.08-10.5a4.51,4.51,0,0,0-.78-.22l-5.75,0c-5,0-5.13-.05-6.86,4.54-5.32,14.15-10.52,28.34-15.79,42.52-2,5.43-4.07,10.85-6.24,16.63L242.08,58.36h-12a16.93,16.93,0,0,0,.49,2c3.1,8.11,6.18,16.23,9.35,24.32,6.21,15.8,12.49,31.56,18.7,47.36.56,1.42,1.51,3.23,1.07,4.4-2.93,7.73-5.94,15.46-9.43,22.94s-9.72,10.37-18,6.63c-1.52-.68-3.09-1.26-4.85-2L224,174.57c1.85.66,3.26,1.25,4.72,1.68C231.19,177,233.73,177.59,236.25,178.25ZM58.85,22.13c-.69.56-1,.74-1.18,1-11.34,11.52-23,22.76-33.95,34.62-13.81,14.92-16.28,36.64-7,54.63,9.07,17.52,28.51,28,47.61,25.65a47.94,47.94,0,0,0,40.69-36.24c4.18-17.46-.26-32.71-12.13-45.71l-8.67,8.29c.5.63.94,1.21,1.41,1.77,9.43,11.44,11.73,24.32,6,37.85-5.91,13.93-17,21.59-32.33,22-15.07.37-26.18-6.91-32.65-20.21C20,91.92,21.36,78.28,31.61,66.59,39.67,57.4,48.66,49,57.2,40.24a4.8,4.8,0,0,0,1.57-2.64C58.93,32.62,58.85,27.63,58.85,22.13ZM165.22,99.25c5.61,0,10.93,0,16.25,0A52.38,52.38,0,0,0,200.4,96.2c9.82-3.69,17.16-10,20.06-20.45a44.19,44.19,0,0,0,1.39-16.18c-.92-9.65-4.74-17.37-12.84-22.89-6.87-4.68-14.63-6.57-22.71-6.84-10.07-.34-20.15-.08-30.23-.08h-2.18V137.12h11.34Zm430,37.89v-2.79c0-18.08,0-36.16.07-54.24a5.25,5.25,0,0,1,1.52-3.57c6.92-5.93,14.67-9.89,24.12-9.29,5,.32,9.15,2.43,11.17,7A28.57,28.57,0,0,1,634.64,85c.26,16.49.11,33,.11,49.49v2.59h11.5c0-18.07,0-36,0-53.88a38.11,38.11,0,0,0-1-9.22c-2-7.94-6.6-13.88-14.8-16.21A32.49,32.49,0,0,0,606.83,60c-4.08,2-7.74,4.8-11.68,7.31V19.12c-3.11.74-6,1.63-8.92,2-2,.27-2.52,1-2.52,3q.08,55.37,0,110.74v2.3Zm-191.69,2.11c1.61,0,2.78.06,3.94,0s2.42-.29,3.63-.48a34.38,34.38,0,0,0,23.66-14.69c8.2-11.64,9.36-24.57,6.91-38.07a36.4,36.4,0,0,0-9.35-18.86,33.26,33.26,0,0,0-20.61-10.47c-8.4-1.07-16.51-.52-24,3.44-13.81,7.28-20,19.42-20.85,34.52a65.26,65.26,0,0,0,1,14.48A36,36,0,0,0,379,130.17C386,136.51,394.39,139.77,403.56,139.25ZM288.32,40.84h37V137.1h11.5V40.68H373.6V30.39H288.32ZM568.07,73c.82-2.89,1.43-5.56,2.37-8.11.61-1.63.11-2.44-1.21-3.2-9.72-5.61-20.32-6.8-31-4.82a34.1,34.1,0,0,0-23.39,15.93,41.19,41.19,0,0,0-6.48,19.79,84,84,0,0,0,.49,14.61,37.33,37.33,0,0,0,8.84,20.12c6.17,7.24,14.3,11,23.59,11.81a51.26,51.26,0,0,0,28-5.15,2.28,2.28,0,0,0,1.38-3c-.69-2.78-1.47-5.54-2.26-8.44a10.34,10.34,0,0,0-1.66.64,37.61,37.61,0,0,1-21.13,5.51c-8.66-.27-15.62-3.87-20.31-11-6.63-10.13-7.11-21.21-3.73-32.57,2.5-8.41,7.9-14.37,16.23-17.13,7.54-2.5,15.14-1.55,22.48,1.26C562.82,70.26,565.19,71.64,568.07,73ZM469.24,55.93l-11.36,2.44v78.73h11.37v-2.85c0-15.33,0-30.66,0-46a7.41,7.41,0,0,1,.93-3.68c2.4-3.92,4.62-8.05,7.62-11.49,3.41-3.91,7.85-6.86,13.42-6.26,3.15.34,6.22,1.53,9.27,2.52,1.5.49,2.48.77,2.79-1.28a30.11,30.11,0,0,1,1.24-4.41c1.3-4.14,1.19-4.45-3-5.8-7-2.24-14.05-2.87-20.8.9-4.92,2.75-8.46,6.92-11.49,12.24ZM82,47.24a6.19,6.19,0,1,0-12.37.19A6.19,6.19,0,1,0,82,47.24Z" transform="translate(-10.25 -10.25)"/><path class="b" d="M988.25,152.25q-101.48,0-203,.06a9,9,0,0,0-4.58,1.36c-11.71,7.5-23.35,15.12-35,22.7-.61.4-1.25.75-2.08,1.26V152.35H693.92V10.75H988.25ZM799.51,138.34V24.63H788v95.62L774.36,99.6Q750.1,63,725.81,26.35c-.51-.76-1.37-1.79-2.1-1.83-4-.18-8.11-.09-12.19-.09V137h11.34V41.62c.6.76.87,1.05,1.08,1.38q8.83,13.32,17.65,26.64,22.25,33.63,44.52,67.23a3.16,3.16,0,0,0,2,1.4C791.89,138.42,795.62,138.34,799.51,138.34ZM900.24,24.42V137H912V97.4c4.94,0,9.62.32,14.25-.08,6.53-.55,13.19-.95,19.48-2.6,21.92-5.76,32.65-27.34,24.38-48.49-4.92-12.57-15.23-18.46-27.77-20.44-7.76-1.22-15.75-1.08-23.64-1.33C912.61,24.27,906.54,24.42,900.24,24.42ZM821.25,137h67.11V126.07H832.88V24.58H821.25Z" transform="translate(-10.25 -10.25)"/><path class="c" d="M236.25,178.25c-2.52-.66-5.06-1.28-7.56-2-1.46-.42-2.87-1-4.72-1.68L227.4,164c1.75.71,3.32,1.28,4.85,2,8.33,3.74,14.51.95,18-6.63s6.5-15.21,9.43-22.94c.44-1.17-.51-3-1.07-4.4-6.21-15.8-12.49-31.56-18.7-47.36-3.18-8.08-6.25-16.2-9.35-24.32a16.93,16.93,0,0,1-.49-2h12L266,121.94c2.17-5.78,4.23-11.2,6.24-16.63,5.26-14.17,10.46-28.37,15.79-42.52,1.73-4.59,1.87-4.54,6.86-4.54l5.75,0a4.51,4.51,0,0,1,.78.22c-1.37,3.52-2.73,7-4.08,10.5q-6.79,17.55-13.59,35.1c-4.22,10.87-8.5,21.72-12.69,32.6-2.66,6.9-4.91,14-7.9,20.74a74.72,74.72,0,0,1-8,14,16,16,0,0,1-11.4,6.39c-.17,0-.32.3-.48.46Z" transform="translate(-10.25 -10.25)"/><path class="d" d="M58.85,22.13c0,5.5.08,10.48-.07,15.47a4.8,4.8,0,0,1-1.57,2.64C48.66,49,39.67,57.4,31.61,66.59,21.36,78.28,20,91.92,26.68,105.71c6.46,13.3,17.58,20.58,32.65,20.21,15.28-.37,26.42-8,32.33-22,5.74-13.52,3.44-26.41-6-37.85-.47-.56-.91-1.14-1.41-1.77l8.67-8.29c11.87,13,16.31,28.25,12.13,45.71A47.94,47.94,0,0,1,64.36,138c-19.1,2.34-38.54-8.13-47.61-25.65-9.32-18-6.84-39.71,7-54.63,11-11.86,22.6-23.11,33.95-34.62C57.89,22.88,58.16,22.7,58.85,22.13Z" transform="translate(-10.25 -10.25)"/><path class="c" d="M165.22,99.25v37.87H153.87V29.75h2.18c10.08,0,20.17-.26,30.23.08,8.08.27,15.84,2.16,22.71,6.84,8.1,5.52,11.93,13.24,12.84,22.89a44.19,44.19,0,0,1-1.39,16.18c-2.9,10.44-10.24,16.75-20.06,20.45a52.38,52.38,0,0,1-18.94,3.06C176.15,99.22,170.83,99.25,165.22,99.25Zm.59-9.78c5.25-.25,10.26-.63,15.29-.68a41.08,41.08,0,0,0,15-2.6c3.91-1.56,7.58-3.54,10.18-7.15a24.7,24.7,0,0,0,4.46-15.58c-.24-10.61-6.93-18.08-16.58-20.64a52.33,52.33,0,0,0-11.08-1.54c-5.74-.25-11.5-.07-17.32-.07Z" transform="translate(-10.25 -10.25)"/><path class="c" d="M595.25,137.14h-11.5v-2.3q0-55.37,0-110.74c0-2,.51-2.68,2.52-3,2.94-.4,5.81-1.3,8.92-2V67.35c3.94-2.5,7.6-5.34,11.68-7.31a32.49,32.49,0,0,1,23.54-2.27c8.2,2.33,12.76,8.27,14.8,16.21a38.11,38.11,0,0,1,1,9.22c.09,17.91,0,35.81,0,53.88h-11.5V134.5c0-16.5.15-33-.11-49.49a28.57,28.57,0,0,0-2.51-10.74c-2-4.58-6.17-6.7-11.17-7-9.46-.6-17.21,3.36-24.12,9.29a5.25,5.25,0,0,0-1.52,3.57c-.1,18.08-.07,36.16-.07,54.24Z" transform="translate(-10.25 -10.25)"/><path class="c" d="M403.56,139.25c-9.17.52-17.53-2.74-24.52-9.08a36,36,0,0,1-11.2-21.07,65.26,65.26,0,0,1-1-14.48c.83-15.1,7-27.24,20.85-34.52,7.53-4,15.64-4.51,24-3.44a33.26,33.26,0,0,1,20.61,10.47A36.4,36.4,0,0,1,441.7,86c2.45,13.51,1.29,26.43-6.91,38.07a34.38,34.38,0,0,1-23.66,14.69c-1.2.19-2.41.4-3.63.48S405.17,139.25,403.56,139.25ZM402.5,66.74c-8.33.22-16.12,4.83-20.76,14.26a37.12,37.12,0,0,0-3.59,21.26c.7,5.84,2.15,11.34,5.52,16.07,6.05,8.51,14.29,12.43,24.89,11a24.08,24.08,0,0,0,15-7.72c5.55-6.15,7.79-13.79,8-21.88a43.7,43.7,0,0,0-1.47-12.09C426.95,75.05,417.84,66.83,402.5,66.74Z" transform="translate(-10.25 -10.25)"/><path class="c" d="M288.32,40.84V30.39H373.6V40.68H336.83V137.1h-11.5V40.84Z" transform="translate(-10.25 -10.25)"/><path class="c" d="M568.07,73c-2.88-1.4-5.25-2.78-7.79-3.75-7.33-2.81-14.93-3.77-22.48-1.26-8.33,2.76-13.72,8.72-16.23,17.13-3.38,11.36-2.89,22.44,3.73,32.57,4.69,7.17,11.65,10.77,20.31,11a37.61,37.61,0,0,0,21.13-5.51,10.34,10.34,0,0,1,1.66-.64c.78,2.9,1.57,5.66,2.26,8.44a2.28,2.28,0,0,1-1.38,3,51.26,51.26,0,0,1-28,5.15c-9.3-.85-17.43-4.58-23.59-11.81a37.33,37.33,0,0,1-8.84-20.12,84,84,0,0,1-.49-14.61,41.19,41.19,0,0,1,6.48-19.79,34.1,34.1,0,0,1,23.39-15.93c10.71-2,21.3-.79,31,4.82,1.32.76,1.82,1.57,1.21,3.2C569.5,67.48,568.89,70.16,568.07,73Z" transform="translate(-10.25 -10.25)"/><path class="c" d="M469.24,55.93V71c3-5.32,6.57-9.49,11.49-12.24,6.75-3.76,13.77-3.14,20.8-.9,4.21,1.34,4.31,1.65,3,5.8a30.11,30.11,0,0,0-1.24,4.41c-.31,2.06-1.29,1.77-2.79,1.28-3-1-6.12-2.18-9.27-2.52-5.56-.6-10,2.35-13.42,6.26-3,3.43-5.22,7.56-7.62,11.49a7.41,7.41,0,0,0-.93,3.68c-.06,15.33,0,30.66,0,46v2.85H457.88V58.38Z" transform="translate(-10.25 -10.25)"/><path class="e" d="M82,47.24a6.19,6.19,0,1,1-6.27-6.16A6.36,6.36,0,0,1,82,47.24Z" transform="translate(-10.25 -10.25)"/><path class="f" d="M799.51,138.34c-3.88,0-7.62.07-11.35-.07a3.16,3.16,0,0,1-2-1.4q-22.3-33.59-44.52-67.23Q732.77,56.32,723.94,43c-.22-.33-.48-.62-1.08-1.38V137H711.51V24.44c4.08,0,8.14-.09,12.19.09.73,0,1.6,1.06,2.1,1.83Q750.12,63,774.36,99.6L788,120.25V24.63h11.47Z" transform="translate(-10.25 -10.25)"/><path class="g" d="M900.24,24.42c6.29,0,12.37-.15,18.43,0,7.89.25,15.88.11,23.64,1.33,12.55,2,22.86,7.87,27.77,20.44,8.27,21.16-2.45,42.73-24.38,48.49-6.29,1.65-13,2-19.48,2.6-4.62.39-9.31.08-14.25.08V137H900.24Zm11.72,62c4.59,0,9.06.06,13.53,0,7-.11,14-.68,20.53-3.42,9.43-3.93,14.3-11.68,14.3-22.73,0-10.52-5-18.12-14.55-22-11-4.44-22.44-2.48-33.81-3Z" transform="translate(-10.25 -10.25)"/><path class="h" d="M821.25,137V24.58h11.63V126.07h55.49V137Z" transform="translate(-10.25 -10.25)"/><path class="a" d="M165.81,89.47V41.21c5.82,0,11.58-.18,17.32.07a52.33,52.33,0,0,1,11.08,1.54c9.65,2.56,16.34,10,16.58,20.64A24.7,24.7,0,0,1,206.32,79c-2.6,3.61-6.27,5.59-10.18,7.15a41.08,41.08,0,0,1-15,2.6C176.07,88.84,171.06,89.22,165.81,89.47Z" transform="translate(-10.25 -10.25)"/><path class="a" d="M402.5,66.74c15.34.1,24.44,8.31,27.67,20.86a43.7,43.7,0,0,1,1.47,12.09c-.26,8.09-2.5,15.72-8,21.88a24.08,24.08,0,0,1-15,7.72c-10.6,1.48-18.84-2.45-24.89-11-3.37-4.73-4.82-10.23-5.52-16.07A37.12,37.12,0,0,1,381.75,81C386.39,71.57,394.17,67,402.5,66.74Z" transform="translate(-10.25 -10.25)"/><path class="i" d="M912,86.42V35.29c11.37.52,22.84-1.45,33.81,3,9.51,3.85,14.56,11.46,14.55,22,0,11.05-4.87,18.8-14.3,22.73-6.58,2.74-13.53,3.3-20.53,3.42C921,86.48,916.55,86.42,912,86.42Z" transform="translate(-10.25 -10.25)"/></svg>